<?xml version="1.0" encoding="UTF-8" standalone="no"?>
<!DOCTYPE svg PUBLIC "-//W3C//DTD SVG 1.1//EN" "http://www.w3.org/Graphics/SVG/1.1/DTD/svg11.dtd">
<svg width="100%" height="100%" viewBox="0 0 1318 1403" version="1.1" xmlns="http://www.w3.org/2000/svg" xmlns:xlink="http://www.w3.org/1999/xlink" xml:space="preserve" xmlns:serif="http://www.serif.com/" style="fill-rule:evenodd;clip-rule:evenodd;stroke-linecap:round;stroke-linejoin:round;stroke-miterlimit:1.5;">
    <g transform="matrix(1,0,0,1,-944.985,-300.048)">
        <path d="M1011.16,546.257C990.196,732.525 1029.03,849.311 981.299,1207.32C976.91,1240.24 880.078,1634.66 1119.87,1684.28C1346.85,1731.24 1463.89,1401.99 1216.55,1291.11C1045.17,1214.29 800.143,1650.17 1173.05,1673C1475.77,1691.53 1822.52,1663.11 1878.81,1658.5C2380.04,1617.41 2131.01,1146.81 1951.32,1265.33C1738.27,1405.85 1824.59,1811.72 2075.39,1637.55C2270.95,1501.74 2178.12,1078.8 2204.3,627.246C2205.68,603.438 2229,201.178 2025.44,388.77C1799.93,596.596 1932.82,940.025 2172.07,773.877C2319.91,671.21 2250.05,321.111 2014.16,314.648C1619.68,303.841 1625.57,364.769 1232.67,383.936C925.311,398.928 925.95,751.318 1097.31,751.318C1273.7,751.318 1375.29,493.972 1142.43,453.223" style="fill:none;stroke:white;stroke-width:26.65px;"/>
        <path d="M1533.13,680.465C1180.47,982.733 1386.1,1385.93 1775.68,1176.71C1983.88,1064.9 1942.98,606.503 1530.76,702.979" style="fill:none;stroke:white;stroke-width:26.65px;"/>
    </g>
</svg>
