<?xml version="1.0" encoding="UTF-8"?>
<svg xmlns="http://www.w3.org/2000/svg" version="1.1" viewBox="0 0 160 160">
  <!-- Generator: Adobe Illustrator 29.2.1, SVG Export Plug-In . SVG Version: 2.1.0 Build 116)  -->
  <defs>
    <style>
      .st0 {
        fill: #fff;
      }

      .st0, .st1 {
        stroke: #000;
        stroke-miterlimit: 10;
        stroke-width: 6px;
      }

      .st1 {
        fill: none;
      }
    </style>
  </defs>
  <g id="Layer_1">
    <path d="M80,66.4c7.5,0,13.6,6.1,13.6,13.6s-6.1,13.6-13.6,13.6-13.6-6.1-13.6-13.6,6.1-13.6,13.6-13.6M80,56.4c-13,0-23.6,10.6-23.6,23.6s10.6,23.6,23.6,23.6,23.6-10.6,23.6-23.6-10.6-23.6-23.6-23.6h0Z"/>
    <path d="M118,111c2.8,0,5,2.2,5,5s-2.2,5-5,5-5-2.2-5-5,2.2-5,5-5M118,105c-6.1,0-11,4.9-11,11s4.9,11,11,11,11-4.9,11-11-4.9-11-11-11h0Z"/>
    <path d="M42,111c2.8,0,5,2.2,5,5s-2.2,5-5,5-5-2.2-5-5,2.2-5,5-5M42,105c-6.1,0-11,4.9-11,11s4.9,11,11,11,11-4.9,11-11-4.9-11-11-11h0Z"/>
    <path d="M42,39c2.8,0,5,2.2,5,5s-2.2,5-5,5-5-2.2-5-5,2.2-5,5-5M42,33c-6.1,0-11,4.9-11,11s4.9,11,11,11,11-4.9,11-11-4.9-11-11-11h0Z"/>
    <path d="M118,39c2.8,0,5,2.2,5,5s-2.2,5-5,5-5-2.2-5-5,2.2-5,5-5M118,33c-6.1,0-11,4.9-11,11s4.9,11,11,11,11-4.9,11-11-4.9-11-11-11h0Z"/>
  </g>
  <g id="Layer_2">
    <line class="st1" x1="42" y1="36" x2="118" y2="36"/>
    <line class="st0" x1="42" y1="124" x2="118" y2="124"/>
    <line class="st1" x1="34" y1="116" x2="34" y2="44"/>
    <line class="st0" x1="126" y1="43" x2="126" y2="117"/>
  </g>
</svg>