<?xml version="1.0" encoding="UTF-8"?>
<svg xmlns="http://www.w3.org/2000/svg" version="1.1" viewBox="0 0 160 160">
  <!-- Generator: Adobe Illustrator 29.2.1, SVG Export Plug-In . SVG Version: 2.1.0 Build 116)  -->
  <defs>
    <style>
      .st0 {
        fill: #fff;
        stroke: #000;
        stroke-miterlimit: 10;
        stroke-width: 8px;
      }
    </style>
  </defs>
  <g id="Layer_1">
    <path d="M80,59.5c11.3,0,20.5,9.2,20.5,20.5s-9.2,20.5-20.5,20.5-20.5-9.2-20.5-20.5,9.2-20.5,20.5-20.5M80,40.5c-21.8,0-39.5,17.7-39.5,39.5s17.7,39.5,39.5,39.5,39.5-17.7,39.5-39.5-17.7-39.5-39.5-39.5h0Z"/>
    <path d="M118,110c3.3,0,6,2.7,6,6s-2.7,6-6,6-6-2.7-6-6,2.7-6,6-6M118,102c-7.7,0-14,6.3-14,14s6.3,14,14,14,14-6.3,14-14-6.3-14-14-14h0Z"/>
    <path d="M42,110c3.3,0,6,2.7,6,6s-2.7,6-6,6-6-2.7-6-6,2.7-6,6-6M42,102c-7.7,0-14,6.3-14,14s6.3,14,14,14,14-6.3,14-14-6.3-14-14-14h0Z"/>
    <path d="M42,38c3.3,0,6,2.7,6,6s-2.7,6-6,6-6-2.7-6-6,2.7-6,6-6M42,30c-7.7,0-14,6.3-14,14s6.3,14,14,14,14-6.3,14-14-6.3-14-14-14h0Z"/>
    <path d="M118,38c3.3,0,6,2.7,6,6s-2.7,6-6,6-6-2.7-6-6,2.7-6,6-6M118,30c-7.7,0-14,6.3-14,14s6.3,14,14,14,14-6.3,14-14-6.3-14-14-14h0Z"/>
  </g>
  <g id="Layer_2">
    <line class="st0" x1="40" y1="17" x2="120" y2="17"/>
    <line class="st0" x1="40" y1="143" x2="120" y2="143"/>
    <line class="st0" x1="13" y1="40" x2="13" y2="120"/>
    <line class="st0" x1="147" y1="120" x2="147" y2="40"/>
  </g>
</svg>