<?xml version="1.0" encoding="UTF-8" standalone="no"?>
<!DOCTYPE svg PUBLIC "-//W3C//DTD SVG 1.1//EN" "http://www.w3.org/Graphics/SVG/1.1/DTD/svg11.dtd">
<svg width="100%" height="100%" viewBox="0 0 99 95" version="1.1" xmlns="http://www.w3.org/2000/svg" xmlns:xlink="http://www.w3.org/1999/xlink" xml:space="preserve" xmlns:serif="http://www.serif.com/" style="fill-rule:evenodd;clip-rule:evenodd;stroke-linejoin:round;stroke-miterlimit:2;">
    <g transform="matrix(1,0,0,1,-30.5,-32.5)">
        <path d="M80,66.4C87.5,66.4 93.6,72.5 93.6,80C93.6,87.5 87.5,93.6 80,93.6C72.5,93.6 66.4,87.5 66.4,80C66.4,72.5 72.5,66.4 80,66.4M80,56.4C67,56.4 56.4,67 56.4,80C56.4,93 67,103.6 80,103.6C93,103.6 103.6,93 103.6,80C103.6,67 93,56.4 80,56.4Z" style="fill:white;fill-rule:nonzero;stroke:white;stroke-width:1px;"/>
        <path d="M118,111C120.8,111 123,113.2 123,116C123,118.8 120.8,121 118,121C115.2,121 113,118.8 113,116C113,113.2 115.2,111 118,111M118,105C111.9,105 107,109.9 107,116C107,122.1 111.9,127 118,127C124.1,127 129,122.1 129,116C129,109.9 124.1,105 118,105Z" style="fill:white;fill-rule:nonzero;stroke:white;stroke-width:1px;"/>
        <path d="M42,111C44.8,111 47,113.2 47,116C47,118.8 44.8,121 42,121C39.2,121 37,118.8 37,116C37,113.2 39.2,111 42,111M42,105C35.9,105 31,109.9 31,116C31,122.1 35.9,127 42,127C48.1,127 53,122.1 53,116C53,109.9 48.1,105 42,105Z" style="fill:white;fill-rule:nonzero;stroke:white;stroke-width:1px;"/>
        <path d="M42,39C44.8,39 47,41.2 47,44C47,46.8 44.8,49 42,49C39.2,49 37,46.8 37,44C37,41.2 39.2,39 42,39M42,33C35.9,33 31,37.9 31,44C31,50.1 35.9,55 42,55C48.1,55 53,50.1 53,44C53,37.9 48.1,33 42,33Z" style="fill:white;fill-rule:nonzero;stroke:white;stroke-width:1px;"/>
        <path d="M118,39C120.8,39 123,41.2 123,44C123,46.8 120.8,49 118,49C115.2,49 113,46.8 113,44C113,41.2 115.2,39 118,39M118,33C111.9,33 107,37.9 107,44C107,50.1 111.9,55 118,55C124.1,55 129,50.1 129,44C129,37.9 124.1,33 118,33Z" style="fill:white;fill-rule:nonzero;stroke:white;stroke-width:1px;"/>
        <path d="M42,36L118,36" style="fill:none;fill-rule:nonzero;stroke:white;stroke-width:6px;"/>
        <path d="M42,124L118,124" style="fill:none;fill-rule:nonzero;stroke:white;stroke-width:6px;"/>
        <path d="M34,116L34,44" style="fill:none;fill-rule:nonzero;stroke:white;stroke-width:6px;"/>
        <path d="M126,43L126,117" style="fill:none;fill-rule:nonzero;stroke:white;stroke-width:6.1px;"/>
    </g>
</svg>
